<svg xmlns="http://www.w3.org/2000/svg" xmlns:xlink="http://www.w3.org/1999/xlink" width="1080" zoomAndPan="magnify" viewBox="0 0 810 809.999993" height="1080" preserveAspectRatio="xMidYMid meet" version="1.0">
    <path fill="#ec1b24" d="M 695.253906 405.417969 C 695.253906 565.753906 565.28125 695.742188 404.929688 695.742188 C 244.578125 695.742188 114.601562 565.753906 114.601562 405.417969 C 114.597656 245.066406 244.578125 115.078125 404.929688 115.078125 C 565.28125 115.078125 695.253906 245.066406 695.253906 405.417969 " fill-opacity="1" fill-rule="nonzero" />
    <path fill="#9e1b2e" d="M 404.929688 600.105469 C 302.867188 600.105469 213.132812 547.425781 161.378906 467.785156 C 158.421875 452.8125 156.746094 437.378906 156.476562 421.597656 C 212.929688 497.371094 303.179688 546.433594 404.921875 546.433594 C 512.050781 546.433594 606.449219 492.027344 662.050781 409.347656 C 661.820312 424.0625 660.351562 438.488281 657.746094 452.496094 C 607.917969 540.617188 513.386719 600.105469 404.921875 600.105469 " fill-opacity="1" fill-rule="nonzero" />
    <path fill="#bc1f2a" d="M 404.929688 662.574219 C 330.554688 662.574219 263.464844 630.828125 216.460938 580.195312 C 216.492188 580.195312 216.515625 580.195312 216.539062 580.210938 C 209.34375 572.449219 202.621094 564.257812 196.410156 555.675781 C 179.71875 529.214844 167.660156 499.542969 161.378906 467.785156 C 213.128906 547.425781 302.867188 600.105469 404.929688 600.105469 C 513.394531 600.105469 607.925781 540.617188 657.753906 452.496094 C 649.128906 498.796875 628.050781 540.761719 598.164062 574.808594 L 598.265625 574.808594 C 551.085938 628.566406 481.894531 662.574219 404.929688 662.574219 M 282.039062 616.804688 C 279.117188 616.804688 277.546875 617.496094 277.546875 619.125 C 277.546875 629 334.589844 653.042969 404.929688 653.042969 C 475.273438 653.042969 532.3125 629 532.3125 619.125 C 532.3125 617.496094 530.746094 616.804688 527.820312 616.804688 C 513.050781 616.804688 463.625 634.125 404.929688 634.125 C 346.234375 634.125 296.8125 616.804688 282.039062 616.804688 " fill-opacity="1" fill-rule="nonzero" />
    <path fill="#141212" d="M 156.476562 421.597656 C 153.492188 417.597656 150.601562 413.507812 147.804688 409.363281 C 147.792969 408.441406 147.78125 407.519531 147.777344 406.597656 L 147.777344 405.171875 C 147.792969 384.828125 150.253906 365.078125 154.753906 346.089844 L 154.683594 346.089844 C 165.25 301.5 187.460938 261.363281 217.90625 229.101562 L 217.996094 229.101562 C 247.125 198.238281 283.75 174.570312 324.96875 161.054688 L 324.753906 161.054688 C 349.988281 152.753906 376.953125 148.257812 404.929688 148.257812 C 433.058594 148.257812 460.140625 152.796875 485.492188 161.183594 L 485.261719 161.183594 C 510.429688 169.476562 533.867188 181.558594 554.941406 196.742188 C 514.863281 171.519531 467.453125 156.925781 416.605469 156.925781 C 272.910156 156.925781 156.4375 273.398438 156.4375 417.074219 C 156.4375 418.585938 156.453125 420.097656 156.476562 421.597656 " fill-opacity="1" fill-rule="nonzero" />
    <path fill="#131111" d="M 161.378906 467.785156 C 158.136719 462.789062 155.042969 457.707031 152.101562 452.496094 C 149.496094 438.488281 148.03125 424.0625 147.804688 409.363281 C 150.601562 413.507812 153.492188 417.597656 156.476562 421.597656 C 156.746094 437.378906 158.421875 452.8125 161.378906 467.785156 " fill-opacity="1" fill-rule="nonzero" />
    <path fill="#131111" d="M 196.410156 555.675781 C 174.601562 525.5 159.164062 490.460938 152.101562 452.496094 C 155.042969 457.707031 158.136719 462.789062 161.378906 467.785156 C 167.660156 499.542969 179.71875 529.214844 196.410156 555.675781 " fill-opacity="1" fill-rule="nonzero" />
    <path fill="#acadab" d="M 404.929688 148.257812 C 263.132812 148.257812 147.773438 263.625 147.773438 405.414062 C 147.777344 547.207031 263.132812 662.570312 404.929688 662.570312 C 546.707031 662.570312 662.082031 547.207031 662.082031 405.414062 C 662.082031 263.621094 546.707031 148.257812 404.929688 148.257812 M 404.929688 728.925781 C 226.539062 728.925781 81.417969 583.804688 81.417969 405.414062 C 81.410156 227.023438 226.539062 81.890625 404.929688 81.890625 C 583.320312 81.894531 728.4375 227.023438 728.4375 405.414062 C 728.4375 583.804688 583.320312 728.925781 404.929688 728.925781 " fill-opacity="1" fill-rule="nonzero" />
    <path fill="#f0474c" d="M 594.792969 380.121094 C 554.785156 380.121094 484.699219 348.261719 404.929688 348.261719 C 325.15625 348.261719 255.070312 380.121094 215.0625 380.121094 C 192.691406 380.121094 179.730469 370.175781 179.730469 339.105469 C 179.730469 252.507812 280.554688 182.308594 404.925781 182.308594 C 529.300781 182.308594 630.121094 252.507812 630.121094 339.105469 C 630.121094 370.160156 617.148438 380.121094 594.789062 380.121094 M 404.925781 242.332031 C 450.042969 242.332031 489.695312 251.445312 512.324219 251.445312 C 524.964844 251.445312 532.308594 248.59375 532.308594 239.710938 C 532.308594 214.9375 475.269531 194.855469 404.925781 194.855469 C 334.582031 194.855469 277.542969 214.9375 277.542969 239.710938 C 277.542969 248.59375 284.871094 251.445312 297.523438 251.445312 C 320.15625 251.445312 359.804688 242.332031 404.925781 242.332031 " fill-opacity="1" fill-rule="nonzero" />
    <path fill="#fac7b4" d="M 512.328125 251.445312 C 489.695312 251.445312 450.046875 242.332031 404.929688 242.332031 C 359.808594 242.332031 320.160156 251.445312 297.527344 251.445312 C 284.875 251.445312 277.546875 248.59375 277.546875 239.710938 C 277.546875 214.9375 334.585938 194.855469 404.929688 194.855469 C 475.269531 194.855469 532.3125 214.9375 532.3125 239.710938 C 532.3125 248.59375 524.96875 251.445312 512.328125 251.445312 " fill-opacity="1" fill-rule="nonzero" />
    <path fill="#e32132" d="M 404.929688 653.042969 C 334.585938 653.042969 277.546875 629 277.546875 619.125 C 277.546875 617.496094 279.113281 616.804688 282.035156 616.804688 C 296.808594 616.804688 346.230469 634.125 404.929688 634.125 C 463.625 634.125 513.046875 616.804688 527.820312 616.804688 C 530.742188 616.804688 532.3125 617.496094 532.3125 619.125 C 532.3125 629 475.269531 653.042969 404.929688 653.042969 " fill-opacity="1" fill-rule="nonzero" />
    <path fill="#7f182d" d="M 216.539062 580.210938 C 216.515625 580.195312 216.492188 580.195312 216.464844 580.195312 C 209.445312 572.621094 202.878906 564.644531 196.792969 556.28125 C 196.664062 556.078125 196.539062 555.878906 196.410156 555.675781 C 202.621094 564.257812 209.34375 572.449219 216.539062 580.210938 " fill-opacity="1" fill-rule="nonzero" />
    <path fill="#131112" d="M 147.804688 409.363281 C 147.792969 408.441406 147.78125 407.519531 147.777344 406.597656 C 147.78125 407.519531 147.792969 408.441406 147.804688 409.363281 " fill-opacity="1" fill-rule="nonzero" />
    <path fill="#131111" d="M 152.101562 452.496094 C 152.101562 452.496094 152.097656 452.496094 152.097656 452.480469 C 149.492188 438.472656 148.03125 424.0625 147.804688 409.363281 C 148.03125 424.0625 149.496094 438.488281 152.101562 452.496094 " fill-opacity="1" fill-rule="nonzero" />
    <path fill="#131111" d="M 196.792969 556.28125 C 174.769531 525.976562 159.191406 490.703125 152.097656 452.480469 C 152.097656 452.496094 152.101562 452.496094 152.101562 452.496094 C 159.164062 490.460938 174.601562 525.5 196.410156 555.675781 C 196.539062 555.878906 196.664062 556.078125 196.792969 556.28125 " fill-opacity="1" fill-rule="nonzero" />
    <path fill="#131112" d="M 147.777344 405.171875 C 147.792969 384.828125 150.183594 365.0625 154.683594 346.089844 L 154.753906 346.089844 C 150.253906 365.078125 147.792969 384.828125 147.777344 405.171875 " fill-opacity="1" fill-rule="nonzero" />
    <path fill="#6c7072" d="M 216.464844 580.195312 C 185.535156 577.328125 155.449219 573.730469 126.292969 569.542969 C 97.964844 521.613281 81.574219 465.839844 81.417969 406.296875 L 81.417969 406.109375 C 81.417969 406.007812 81.410156 405.894531 81.410156 405.777344 L 81.410156 405.417969 L 81.828125 405.417969 C 82.367188 385.277344 84.808594 365.234375 89.066406 345.65625 C 110.367188 345.773438 132.277344 345.914062 154.683594 346.089844 C 150.183594 365.0625 147.792969 384.832031 147.777344 405.171875 L 147.777344 406.597656 C 147.78125 407.519531 147.792969 408.441406 147.804688 409.363281 C 148.03125 424.0625 149.492188 438.472656 152.09375 452.480469 C 159.191406 490.703125 174.769531 525.976562 196.792969 556.28125 C 202.878906 564.644531 209.445312 572.621094 216.464844 580.195312 " fill-opacity="1" fill-rule="nonzero" />
    <path fill="#a11b2f" d="M 662.054688 409.347656 C 662.070312 408.296875 662.070312 407.246094 662.082031 406.179688 C 662.070312 407.230469 662.070312 408.296875 662.054688 409.347656 " fill-opacity="1" fill-rule="nonzero" />
    <path fill="#6b1c2d" d="M 657.75 452.496094 C 660.355469 438.488281 661.824219 424.0625 662.054688 409.347656 C 661.824219 424.0625 660.371094 438.457031 657.765625 452.480469 L 657.75 452.496094 " fill-opacity="1" fill-rule="nonzero" />
    <path fill="#7f182d" d="M 598.160156 574.808594 C 628.050781 540.761719 649.125 498.796875 657.75 452.496094 L 657.765625 452.480469 C 649.167969 498.765625 628.136719 540.746094 598.261719 574.808594 L 598.160156 574.808594 " fill-opacity="1" fill-rule="nonzero" />
    <path fill="#a11b2f" d="M 662.082031 406.167969 L 662.082031 405.992188 L 662.082031 406.167969 M 662.082031 405.980469 L 662.082031 405.804688 L 662.082031 405.980469 M 662.082031 405.777344 L 662.082031 405.605469 L 662.082031 405.777344 M 662.082031 405.589844 L 662.082031 405.417969 L 662.082031 405.589844 M 662.082031 405.417969 L 662.082031 405.300781 L 662.082031 405.417969 M 662.082031 405.273438 L 662.082031 405.171875 L 662.082031 405.273438 M 662.082031 405.160156 C 662.070312 384.714844 659.578125 364.847656 655.027344 345.773438 L 655.101562 345.773438 C 659.652344 364.832031 662.070312 384.730469 662.082031 405.160156 " fill-opacity="1" fill-rule="nonzero" />
    <path fill="#6c7072" d="M 598.261719 574.808594 C 628.136719 540.746094 649.167969 498.765625 657.765625 452.480469 C 660.371094 438.457031 661.824219 424.0625 662.054688 409.347656 C 662.070312 408.296875 662.070312 407.230469 662.082031 406.179688 L 662.082031 405.160156 C 662.070312 384.730469 659.652344 364.832031 655.101562 345.773438 C 675.039062 345.640625 694.476562 345.554688 713.40625 345.511719 C 716.34375 363.046875 717.886719 381.03125 717.886719 399.386719 C 717.886719 459.535156 701.386719 515.898438 672.679688 564.199219 C 648.578125 568.171875 623.730469 571.714844 598.261719 574.808594 " fill-opacity="1" fill-rule="nonzero" />
    <path fill="#f691aa" d="M 591.566406 228.78125 C 580.394531 216.992188 568.128906 206.257812 554.941406 196.742188 C 555.230469 196.925781 555.53125 197.117188 555.835938 197.304688 C 568.71875 206.683594 580.714844 217.226562 591.65625 228.78125 L 591.566406 228.78125 " fill-opacity="1" fill-rule="nonzero" />
    <path fill="#a0a1a4" d="M 555.835938 197.304688 C 555.53125 197.117188 555.230469 196.925781 554.941406 196.742188 C 533.867188 181.558594 510.429688 169.476562 485.261719 161.183594 L 485.492188 161.183594 C 510.917969 169.589844 534.601562 181.867188 555.835938 197.304688 " fill-opacity="1" fill-rule="nonzero" />
    <path fill="#e2e2e2" d="M 591.65625 228.78125 C 580.714844 217.226562 568.71875 206.683594 555.835938 197.304688 C 534.601562 181.867188 510.917969 169.589844 485.492188 161.183594 C 529.101562 161.660156 570.878906 162.5 610.183594 163.644531 C 616.820312 169.144531 623.253906 174.898438 629.476562 180.871094 C 640.660156 191.707031 651.054688 203.386719 660.558594 215.769531 C 662.949219 219.238281 665.292969 222.757812 667.570312 226.320312 C 643.425781 227.273438 618.03125 228.09375 591.65625 228.78125 " fill-opacity="1" fill-rule="nonzero" />
    <path fill="#a0a1a4" d="M 217.996094 229.101562 L 217.90625 229.101562 C 246.996094 198.257812 283.589844 174.59375 324.753906 161.054688 L 324.96875 161.054688 C 283.75 174.570312 247.125 198.238281 217.996094 229.101562 " fill-opacity="1" fill-rule="nonzero" />
    <path fill="#e2e2e2" d="M 217.90625 229.101562 C 191.269531 228.453125 165.695312 227.660156 141.261719 226.753906 C 152.847656 210.253906 165.964844 194.875 180.40625 180.894531 C 186.773438 174.78125 193.363281 168.898438 200.164062 163.273438 C 239.550781 162.210938 281.316406 161.457031 324.753906 161.054688 C 283.589844 174.59375 246.996094 198.257812 217.90625 229.101562 " fill-opacity="1" fill-rule="nonzero" />
    <path fill="#d8d8d6" d="M 394.375 722.894531 C 339.496094 722.894531 287.78125 709.148438 242.445312 684.945312 C 296.332031 695.527344 346.332031 697.988281 404.929688 697.988281 C 452.738281 697.988281 498.664062 693.078125 540.097656 688.183594 C 496.277344 710.386719 446.765625 722.894531 394.375 722.894531 " fill-opacity="1" fill-rule="nonzero" />
    <path fill="#eae9e8" d="M 223.335938 587.523438 C 269.09375 633.535156 337.710938 662.15625 404.921875 661.738281 C 472.140625 662.15625 538.84375 634.425781 586.222656 586.714844 C 634.035156 539.4375 661.949219 472.738281 661.660156 405.417969 L 662.496094 405.417969 C 663.648438 439.121094 658.132812 473.285156 646.042969 505.273438 C 633.617188 537.121094 614.640625 566.472656 590.785156 591.28125 C 543.046875 641.09375 474.1875 669.84375 404.921875 670.03125 C 335.644531 669.886719 259.816406 630.800781 212.0625 581 L 223.332031 587.523438 " fill-opacity="1" fill-rule="nonzero" />
    <path fill="#454044" d="M 137.222656 399.386719 C 137.222656 497.152344 192.078125 582.339844 272.621094 625.816406 C 197.882812 580.785156 147.777344 498.851562 147.777344 405.417969 C 147.777344 263.625 263.132812 148.261719 404.933594 148.261719 C 448.941406 148.257812 490.421875 159.394531 526.6875 178.96875 C 488 155.664062 442.738281 142.230469 394.378906 142.230469 C 252.585938 142.230469 137.222656 257.589844 137.222656 399.386719 " fill-opacity="1" fill-rule="nonzero" />
    <path fill="#454044" d="M 558.296875 120.632812 C 653.703125 176.957031 717.886719 280.785156 717.886719 399.386719 C 717.886719 577.777344 572.75 722.894531 394.375 722.894531 C 338.917969 722.894531 286.671875 708.84375 241.007812 684.167969 C 289.121094 712.558594 345.136719 728.929688 404.929688 728.929688 C 583.320312 728.929688 728.4375 583.808594 728.4375 405.417969 C 728.4375 282.484375 659.519531 175.371094 558.296875 120.632812 " fill-opacity="1" fill-rule="nonzero" />
    <path fill="#eae9e8" d="M 728.855469 405.417969 L 728.4375 405.417969 L 728.4375 402.871094 C 728.4375 402.839844 728.425781 402.78125 728.425781 402.738281 L 728.425781 401.457031 C 728.425781 401.269531 728.410156 401.097656 728.410156 400.925781 L 728.410156 400.910156 C 725.992188 224.59375 581.808594 81.894531 404.929688 81.894531 C 226.609375 81.898438 81.546875 226.898438 81.417969 405.171875 L 81.410156 405.171875 L 81.410156 405.417969 L 81 405.417969 C 80.949219 363.019531 89.285156 320.605469 105.5625 281.445312 C 121.792969 242.246094 145.851562 206.339844 175.839844 176.320312 C 205.804688 146.289062 241.683594 122.164062 280.871094 105.863281 C 320.042969 89.507812 362.472656 81.082031 404.941406 81.070312 C 447.371094 81.089844 489.8125 89.507812 528.984375 105.863281 C 568.171875 122.164062 604.050781 146.289062 634.007812 176.320312 C 664 206.339844 688.054688 242.246094 704.296875 281.445312 C 720.578125 320.605469 728.898438 363.019531 728.855469 405.417969 " fill-opacity="1" fill-rule="nonzero" />
    <path fill="#f9f9f8" d="M 728.4375 405.289062 L 728.4375 405.257812 L 728.4375 405.289062 M 81.417969 405.289062 L 81.417969 405.171875 L 81.417969 405.289062 M 728.4375 405.203125 L 728.4375 405.085938 L 728.4375 405.203125 M 81.417969 405.171875 C 81.546875 226.898438 226.609375 81.894531 404.929688 81.894531 C 581.808594 81.898438 725.992188 224.589844 728.410156 400.910156 C 726.753906 279.878906 658.28125 174.695312 558.296875 120.632812 C 579.058594 132.890625 598.335938 147.390625 615.796875 163.808594 C 613.941406 163.753906 612.070312 163.703125 610.183594 163.644531 C 584.832031 142.625 556.554688 125.207031 526.089844 112.828125 C 488.226562 97.296875 447.527344 89.351562 406.539062 89.351562 C 405.964844 89.351562 405.402344 89.355469 404.828125 89.355469 C 404.335938 89.355469 403.847656 89.351562 403.359375 89.351562 C 362.644531 89.351562 321.613281 97.273438 283.765625 112.839844 C 253.488281 125.132812 225.386719 142.421875 200.164062 163.273438 C 196.886719 163.363281 193.632812 163.453125 190.394531 163.542969 C 169.523438 182.074219 151.0625 203.230469 135.535156 226.539062 C 137.441406 226.609375 139.347656 226.679688 141.261719 226.753906 C 128.882812 244.390625 118.246094 263.292969 109.621094 283.117188 C 100.632812 303.113281 93.75 324.117188 89.066406 345.65625 C 88.390625 345.65625 87.714844 345.640625 87.039062 345.640625 C 83.414062 364.949219 81.425781 384.832031 81.410156 405.171875 M 728.429688 405.042969 L 728.429688 404.871094 L 728.429688 405.042969 M 728.429688 404.855469 L 728.429688 404.710938 L 728.429688 404.855469 M 728.429688 404.667969 L 728.429688 404.539062 L 728.429688 404.667969 M 728.429688 404.511719 L 728.429688 404.351562 L 728.429688 404.511719 M 728.429688 404.308594 L 728.429688 404.179688 L 728.429688 404.308594 M 728.429688 404.136719 L 728.429688 403.976562 L 728.429688 404.136719 M 728.429688 403.964844 L 728.429688 403.804688 L 728.429688 403.964844 M 728.429688 403.777344 L 728.429688 403.632812 L 728.429688 403.777344 M 728.429688 403.601562 L 728.429688 403.429688 L 728.429688 403.601562 M 728.429688 403.429688 L 728.429688 403.273438 L 728.429688 403.429688 M 728.429688 403.230469 L 728.429688 403.070312 L 728.429688 403.230469 M 728.429688 403.070312 L 728.429688 402.898438 L 728.429688 403.070312 M 728.429688 402.871094 C 728.429688 402.824219 728.417969 402.78125 728.417969 402.738281 C 728.417969 402.78125 728.429688 402.839844 728.429688 402.871094 M 728.417969 402.695312 L 728.417969 402.367188 L 728.417969 402.695312 M 728.417969 402.335938 L 728.417969 402.179688 L 728.417969 402.335938 M 728.417969 402.179688 L 728.417969 401.992188 L 728.417969 402.179688 M 728.417969 401.992188 L 728.417969 401.832031 L 728.417969 401.992188 M 728.417969 401.804688 L 728.417969 401.457031 L 728.417969 401.804688 M 728.417969 401.457031 C 728.417969 401.269531 728.402344 401.097656 728.402344 400.925781 C 728.402344 401.097656 728.417969 401.269531 728.417969 401.457031 " fill-opacity="1" fill-rule="nonzero" />
    <path fill="#f4f4f3" d="M 81.828125 405.417969 L 81.410156 405.417969 L 81.410156 405.171875 C 81.425781 384.828125 83.414062 364.949219 87.039062 345.640625 C 87.714844 345.640625 88.390625 345.65625 89.066406 345.65625 C 84.808594 365.234375 82.367188 385.277344 81.828125 405.417969 " fill-opacity="1" fill-rule="nonzero" />
    <path fill="#fdfefe" d="M 660.558594 215.769531 C 651.054688 203.386719 640.660156 191.707031 629.476562 180.871094 C 623.253906 174.898438 616.820312 169.144531 610.183594 163.644531 C 612.070312 163.703125 613.941406 163.753906 615.796875 163.808594 C 632.46875 179.488281 647.484375 196.898438 660.558594 215.769531 " fill-opacity="1" fill-rule="nonzero" />
    <path fill="#fdfefe" d="M 141.261719 226.753906 C 139.347656 226.679688 137.441406 226.609375 135.535156 226.539062 C 151.0625 203.230469 169.523438 182.074219 190.394531 163.542969 C 193.632812 163.453125 196.886719 163.363281 200.164062 163.273438 C 193.363281 168.898438 186.773438 174.78125 180.40625 180.894531 C 165.964844 194.875 152.847656 210.253906 141.261719 226.753906 " fill-opacity="1" fill-rule="nonzero" />
    <path fill="#f1efee" d="M 728.4375 405.417969 L 728.035156 405.417969 C 726.898438 363.121094 717.410156 321.296875 700.265625 283.117188 C 689.8125 259.117188 676.421875 236.457031 660.558594 215.769531 C 647.484375 196.898438 632.46875 179.488281 615.796875 163.808594 C 598.335938 147.390625 579.058594 132.890625 558.296875 120.632812 C 658.28125 174.695312 726.753906 279.878906 728.410156 400.910156 L 728.410156 400.925781 C 728.410156 401.097656 728.425781 401.269531 728.425781 401.457031 L 728.425781 402.738281 C 728.425781 402.78125 728.4375 402.824219 728.4375 402.871094 L 728.4375 405.417969 " fill-opacity="1" fill-rule="nonzero" />
</svg>