<svg xmlns="http://www.w3.org/2000/svg" xmlns:xlink="http://www.w3.org/1999/xlink" width="1080" zoomAndPan="magnify" viewBox="0 0 810 809.999993" height="1080" preserveAspectRatio="xMidYMid meet" version="1.0">
    <path fill="#000000" d="M 464.109375 686.898438 C 543.847656 699.976562 623.609375 713.082031 703.292969 726.441406 C 711.449219 726.921875 722.699219 728.726562 727.679688 720.496094 C 729.101562 715.214844 727.984375 709.730469 727.550781 704.398438 C 690.109375 658.558594 653.8125 611.753906 616.773438 565.558594 C 606.335938 553.289062 597.699219 539.375 585.65625 528.554688 C 584.285156 528.605469 581.515625 528.734375 580.121094 528.808594 C 579.789062 533.023438 578.597656 537.824219 581.769531 541.304688 C 621.980469 592.351562 661.660156 643.851562 701.84375 694.925781 C 701.921875 696.449219 702.046875 699.496094 702.125 701.042969 C 692.953125 700.230469 683.960938 698.023438 674.917969 696.320312 C 613.292969 684.433594 551.695312 672.523438 490.097656 660.589844 C 479.503906 660.386719 466.675781 657.085938 457.988281 664.980469 C 452.171875 668.4375 452.703125 675.140625 453.035156 680.957031 C 456.363281 683.546875 459.691406 686.570312 464.109375 686.898438 Z M 464.109375 686.898438 " fill-opacity="1" fill-rule="nonzero" />
    <path fill="#000000" d="M 563.507812 642.480469 C 579.257812 649.3125 593.863281 660.640625 611.644531 661.121094 C 611.3125 659.21875 610.679688 655.355469 610.347656 653.425781 C 597.089844 640.019531 579.382812 632.652344 563.710938 622.597656 C 524.71875 597.707031 485.398438 573.328125 444.980469 550.828125 C 406.167969 526.117188 368.929688 499.097656 331.714844 472.074219 C 269.914062 425.296875 213.417969 371.914062 159.796875 316.066406 C 149.355469 304.539062 139.832031 292.195312 130.152344 280.03125 C 119.433594 263.269531 109.144531 246.179688 100.203125 228.375 C 97.078125 221.289062 88.773438 222.863281 82.652344 223.855469 C 82.320312 227.917969 81.078125 232.03125 81.890625 236.09375 C 95.632812 261.339844 109.804688 286.835938 130.433594 307.28125 C 165.054688 350.277344 205.875 387.582031 245.195312 426.132812 C 293.511719 469.355469 346.980469 506.230469 399.816406 543.640625 C 452.449219 579.625 507.011719 612.921875 563.507812 642.480469 Z M 563.507812 642.480469 " fill-opacity="1" fill-rule="nonzero" />
</svg>